<svg width="87px" height="20px" viewBox="0 0 87 20" version="1.1" xmlns="http://www.w3.org/2000/svg" xmlns:xlink="http://www.w3.org/1999/xlink">
  <title>dark-mode</title>
  <g id="dark-mode" stroke="none" stroke-width="1" fill="none" fill-rule="evenodd">
    <rect id="container" stroke-opacity="0.315149694" stroke="#FFFFFF" fill-opacity="0.48" fill="#000000" x="0.5" y="0.5" width="86" height="19" rx="2"></rect>
    <g id="text" transform="translate(11.796875, 5.105469)" fill="#FFFFFF" fill-opacity="0.8" fill-rule="nonzero">
      <path d="M0,0.439453125 L0,8.89453125 L2.578125,8.89453125 C4.96875,8.89453125 6.18164062,7.453125 6.18164062,4.62304688 C6.18164062,1.86328125 4.95703125,0.439453125 2.578125,0.439453125 L0,0.439453125 Z M1.41796875,1.67578125 L2.40234375,1.67578125 C3.984375,1.67578125 4.734375,2.63671875 4.734375,4.64648438 C4.734375,6.71484375 3.99609375,7.65820312 2.40234375,7.65820312 L1.41796875,7.65820312 L1.41796875,1.67578125 Z" id="D"></path>
      <path d="M9.55078125,9 C10.4238281,9 11.109375,8.63671875 11.4199219,7.99804688 L11.5429688,7.99804688 L11.5429688,8.89453125 L12.8378906,8.89453125 L12.8378906,4.5234375 C12.8378906,3.15234375 11.9355469,2.37304688 10.3476562,2.37304688 C8.90625,2.37304688 7.86914062,3.10546875 7.75195312,4.21289062 L9.08789062,4.21289062 C9.22851562,3.74414062 9.68554688,3.47460938 10.3125,3.47460938 C11.0625,3.47460938 11.4902344,3.84960938 11.4902344,4.51171875 L11.4902344,5.05078125 L9.88476562,5.14453125 C8.34960938,5.23828125 7.51757812,5.91796875 7.51757812,7.06640625 C7.51757812,8.2265625 8.33203125,9 9.55078125,9 Z M9.99023438,7.88671875 C9.3046875,7.88671875 8.87109375,7.54101562 8.87109375,6.984375 C8.87109375,6.41601562 9.28710938,6.09375 10.0898438,6.046875 L11.4902344,5.97070312 L11.4902344,6.55664062 C11.4902344,7.33007812 10.8574219,7.88671875 9.99023438,7.88671875 Z" id="a"></path>
      <path d="M17.5722656,6.03515625 C17.5722656,4.55273438 18.3515625,3.74414062 19.8339844,3.74414062 C20.1855469,3.74414062 20.6074219,3.81445312 20.8945312,3.92578125 L20.8945312,2.44335938 C20.671875,2.35546875 20.3378906,2.30859375 19.9746094,2.30859375 C18.7558594,2.30859375 18.0410156,2.8828125 17.7773438,4.11914062 L17.578125,4.11914062 L17.578125,2.47851562 L14.8886719,2.47851562 L14.8886719,3.49804688 L16.2597656,3.49804688 L16.2597656,7.875 L15.0117188,7.875 L15.0117188,8.89453125 L19.4824219,8.89453125 L19.4824219,7.875 L17.5722656,7.875 L17.5722656,6.03515625 Z" id="r"></path>
      <polygon id="k" points="24.2402344 5.1796875 24.1523438 5.1796875 24.1523438 0 22.7929688 0 22.7929688 8.89453125 24.1523438 8.89453125 24.1523438 6.6796875 24.8730469 5.96484375 26.8652344 8.89453125 28.453125 8.89453125 25.8691406 5.09179688 28.2890625 2.47851562 26.7011719 2.47851562"></polygon>
      <polygon id="M" points="38.0917969 5.91796875 37.9394531 2.51953125 38.0449219 2.51953125 39.4980469 6.90820312 40.5058594 6.90820312 41.9589844 2.51953125 42.0644531 2.51953125 41.9121094 5.91796875 41.9121094 8.89453125 43.125 8.89453125 43.125 0.439453125 41.6132812 0.439453125 40.0488281 5.44921875 39.9609375 5.44921875 38.3847656 0.439453125 36.8789062 0.439453125 36.8789062 8.89453125 38.0917969 8.89453125"></polygon>
      <path d="M47.4199219,9.0234375 C49.1894531,9.0234375 50.3085938,7.921875 50.3085938,6.17578125 L50.3085938,5.19726562 C50.3085938,3.45117188 49.1894531,2.34960938 47.4199219,2.34960938 C45.6503906,2.34960938 44.53125,3.45117188 44.53125,5.19726562 L44.53125,6.17578125 C44.53125,7.921875 45.6503906,9.0234375 47.4199219,9.0234375 Z M47.4199219,3.48046875 C48.3691406,3.48046875 48.9609375,4.16601562 48.9609375,5.2734375 L48.9609375,6.09960938 C48.9609375,7.20703125 48.3691406,7.89257812 47.4199219,7.89257812 C46.4707031,7.89257812 45.8789062,7.20703125 45.8789062,6.09960938 L45.8789062,5.2734375 C45.8789062,4.16601562 46.4707031,3.48046875 47.4199219,3.48046875 Z" id="o"></path>
      <path d="M54.2460938,8.99414062 C55.1777344,8.99414062 55.828125,8.58984375 56.0976562,7.83984375 L56.2148438,7.83984375 L56.2148438,8.89453125 L57.5976562,8.89453125 L57.5976562,0 L56.1914062,0 L56.1914062,3.52734375 L56.0742188,3.52734375 C55.8339844,2.78320313 55.171875,2.3671875 54.2460938,2.3671875 C52.7753906,2.3671875 51.8613281,3.40429688 51.8613281,5.109375 L51.8613281,6.25195312 C51.8613281,7.96289062 52.7753906,8.99414062 54.2460938,8.99414062 Z M54.7382812,7.8046875 C53.8183594,7.8046875 53.25,7.17773438 53.25,6.16992188 L53.25,5.16796875 C53.25,4.16015625 53.8183594,3.52734375 54.7382812,3.52734375 C55.6523438,3.52734375 56.2207031,4.15429688 56.2207031,5.16796875 L56.2207031,6.16992188 C56.2207031,7.17773438 55.6523438,7.8046875 54.7382812,7.8046875 Z" id="d"></path>
      <path d="M63.7792969,7.15429688 C63.6445312,7.62890625 63.0996094,7.93945312 62.390625,7.93945312 C61.4589844,7.93945312 60.8554688,7.30664062 60.8554688,6.328125 L60.8554688,6.01757812 L65.0859375,6.01757812 L65.0859375,5.23828125 C65.0859375,3.45703125 64.0371094,2.34960938 62.3496094,2.34960938 C60.6445312,2.34960938 59.5136719,3.46289062 59.5136719,5.14453125 L59.5136719,6.14648438 C59.5136719,7.97460938 60.5683594,9.0234375 62.3964844,9.0234375 C63.8320312,9.0234375 64.921875,8.25585938 65.0742188,7.15429688 L63.7792969,7.15429688 Z M62.3261719,3.42773438 C63.2226562,3.42773438 63.7617188,4.06054688 63.7617188,5.10351562 L60.8554688,5.10351562 C60.8554688,4.0546875 61.40625,3.42773438 62.3261719,3.42773438 Z" id="e"></path>
    </g>
  </g>
</svg>
