<svg width="93px" height="20px" viewBox="0 0 93 20" version="1.1" xmlns="http://www.w3.org/2000/svg" xmlns:xlink="http://www.w3.org/1999/xlink">
  <title>light-mode</title>
  <g id="light-mode" stroke="none" stroke-width="1" fill="none" fill-rule="evenodd">
    <rect id="container" stroke-opacity="0.242788462" stroke="#000000" fill-opacity="0.2" fill="#FFFFFF" x="0.5" y="0.5" width="92" height="19" rx="4"></rect>
    <g id="text" transform="translate(10.429688, 4.296875)" fill="#000000" fill-rule="nonzero">
      <polygon id="L" points="5.22070312 8.44335938 1.40039062 8.44335938 1.40039062 1.24804688 0 1.24804688 0 9.703125 5.22070312 9.703125"></polygon>
      <path d="M9.796875,1.86328125 C10.3828125,1.86328125 10.7929688,1.48242188 10.7929688,0.931640625 C10.7929688,0.380859375 10.3828125,0 9.796875,0 C9.21679688,0 8.80664062,0.380859375 8.80664062,0.931640625 C8.80664062,1.48242188 9.21679688,1.86328125 9.796875,1.86328125 Z M12.5214844,9.703125 L12.5214844,8.61328125 L10.5058594,8.61328125 L10.5058594,3.28710938 L7.13085938,3.28710938 L7.13085938,4.37695312 L9.17578125,4.37695312 L9.17578125,8.61328125 L7.06054688,8.61328125 L7.06054688,9.703125 L12.5214844,9.703125 Z" id="i"></path>
      <path d="M16.9335938,12.1171875 C18.7558594,12.1171875 19.8632812,11.203125 19.8632812,9.69726562 L19.8632812,3.28710938 L18.5214844,3.28710938 L18.5214844,4.3359375 L18.4042969,4.3359375 C18.1699219,3.62109375 17.4550781,3.17578125 16.5234375,3.17578125 C15,3.17578125 14.0683594,4.21289062 14.0683594,5.91796875 L14.0683594,6.96679688 C14.0683594,8.66015625 14.9882812,9.70898438 16.4707031,9.70898438 C17.4140625,9.70898438 18.1523438,9.2578125 18.3808594,8.54882812 L18.4980469,8.54882812 L18.4980469,9.70898438 C18.4980469,10.6054688 17.953125,11.0859375 16.9511719,11.0859375 C16.1894531,11.0859375 15.6210938,10.7871094 15.5039062,10.3242188 L14.1679688,10.3242188 C14.2851562,11.4316406 15.3398438,12.1171875 16.9335938,12.1171875 Z M15.4570312,6.87890625 L15.4570312,5.9765625 C15.4570312,4.97460938 16.0488281,4.3359375 16.9746094,4.3359375 C17.8945312,4.3359375 18.4863281,4.97460938 18.4863281,5.9765625 L18.4863281,6.87890625 C18.4863281,7.88085938 17.8945312,8.51953125 16.9746094,8.51953125 C16.0488281,8.51953125 15.4570312,7.88085938 15.4570312,6.87890625 Z" id="g"></path>
      <path d="M21.75,9.703125 L23.109375,9.703125 L23.109375,5.98242188 C23.109375,5.00976562 23.71875,4.36523438 24.6445312,4.36523438 C25.5292969,4.36523438 25.9570312,4.86328125 25.9570312,5.88867188 L25.9570312,9.703125 L27.3222656,9.703125 L27.3222656,5.5546875 C27.3222656,4.01367188 26.5605469,3.16992188 25.1601562,3.16992188 C24.2109375,3.16992188 23.484375,3.61523437 23.1621094,4.39453125 L23.0742188,4.39453125 L23.0742188,0.80859375 L21.75,0.80859375 L21.75,9.703125 Z" id="h"></path>
      <path d="M30.7148438,1.49414062 L30.7148438,3.328125 L29.0273438,3.328125 L29.0273438,4.4296875 L30.7148438,4.4296875 L30.7148438,7.72265625 C30.7148438,9.14648438 31.4121094,9.72070312 33.0996094,9.72070312 C33.2929688,9.72070312 34.3710938,9.703125 34.4765625,9.68554688 L34.4765625,8.59570312 C34.3652344,8.60742188 33.4394531,8.61328125 33.2050781,8.61328125 C32.4785156,8.61328125 32.0742188,8.296875 32.0742188,7.72851562 L32.0742188,4.4296875 L34.5292969,4.4296875 L34.5292969,3.328125 L32.0507812,3.328125 L32.0507812,1.49414062 L30.7148438,1.49414062 Z" id="t"></path>
      <polygon id="M" points="44.8769531 6.7265625 44.7246094 3.328125 44.8300781 3.328125 46.2832031 7.71679688 47.2910156 7.71679688 48.7441406 3.328125 48.8496094 3.328125 48.6972656 6.7265625 48.6972656 9.703125 49.9101562 9.703125 49.9101562 1.24804688 48.3984375 1.24804688 46.8339844 6.2578125 46.7460938 6.2578125 45.1699219 1.24804688 43.6640625 1.24804688 43.6640625 9.703125 44.8769531 9.703125"></polygon>
      <path d="M54.2050781,9.83203125 C55.9746094,9.83203125 57.09375,8.73046875 57.09375,6.984375 L57.09375,6.00585938 C57.09375,4.25976562 55.9746094,3.15820312 54.2050781,3.15820312 C52.4355469,3.15820312 51.3164062,4.25976562 51.3164062,6.00585938 L51.3164062,6.984375 C51.3164062,8.73046875 52.4355469,9.83203125 54.2050781,9.83203125 Z M54.2050781,4.2890625 C55.1542969,4.2890625 55.7460938,4.97460938 55.7460938,6.08203125 L55.7460938,6.90820312 C55.7460938,8.015625 55.1542969,8.70117188 54.2050781,8.70117188 C53.2558594,8.70117188 52.6640625,8.015625 52.6640625,6.90820312 L52.6640625,6.08203125 C52.6640625,4.97460938 53.2558594,4.2890625 54.2050781,4.2890625 Z" id="o"></path>
      <path d="M61.03125,9.80273438 C61.9628906,9.80273438 62.6132812,9.3984375 62.8828125,8.6484375 L63,8.6484375 L63,9.703125 L64.3828125,9.703125 L64.3828125,0.80859375 L62.9765625,0.80859375 L62.9765625,4.3359375 L62.859375,4.3359375 C62.6191406,3.59179688 61.9570312,3.17578125 61.03125,3.17578125 C59.5605469,3.17578125 58.6464844,4.21289062 58.6464844,5.91796875 L58.6464844,7.06054688 C58.6464844,8.77148438 59.5605469,9.80273438 61.03125,9.80273438 Z M61.5234375,8.61328125 C60.6035156,8.61328125 60.0351562,7.98632812 60.0351562,6.97851562 L60.0351562,5.9765625 C60.0351562,4.96875 60.6035156,4.3359375 61.5234375,4.3359375 C62.4375,4.3359375 63.0058594,4.96289062 63.0058594,5.9765625 L63.0058594,6.97851562 C63.0058594,7.98632812 62.4375,8.61328125 61.5234375,8.61328125 Z" id="d"></path>
      <path d="M70.5644531,7.96289062 C70.4296875,8.4375 69.8847656,8.74804688 69.1757812,8.74804688 C68.2441406,8.74804688 67.640625,8.11523438 67.640625,7.13671875 L67.640625,6.82617188 L71.8710938,6.82617188 L71.8710938,6.046875 C71.8710938,4.265625 70.8222656,3.15820312 69.1347656,3.15820312 C67.4296875,3.15820312 66.2988281,4.27148438 66.2988281,5.953125 L66.2988281,6.95507812 C66.2988281,8.78320312 67.3535156,9.83203125 69.1816406,9.83203125 C70.6171875,9.83203125 71.7070312,9.06445312 71.859375,7.96289062 L70.5644531,7.96289062 Z M69.1113281,4.23632812 C70.0078125,4.23632812 70.546875,4.86914062 70.546875,5.91210938 L67.640625,5.91210938 C67.640625,4.86328125 68.1914062,4.23632812 69.1113281,4.23632812 Z" id="e"></path>
    </g>
  </g>
</svg>
